<?xml version="1.0" encoding="utf-8"?><!DOCTYPE svg PUBLIC "-//W3C//DTD SVG 1.1//EN" "http://www.w3.org/Graphics/SVG/1.1/DTD/svg11.dtd"><svg version="1.1" xmlns="http://www.w3.org/2000/svg" xmlns:xlink="http://www.w3.org/1999/xlink" x="0" y="0" width="210" height="110" viewBox="0 0 210 110" enable-background="new 0 0 210 110" xml:space="preserve"><title>Manga</title><radialGradient id="SVGID_1_" cx="105" cy="0" r="78.7816" gradientUnits="userSpaceOnUse"><stop offset="0" stop-color="#FBB03B"/><stop offset="0.65" stop-color="#FF931E"/><stop offset="1" stop-color="#C1272D"/></radialGradient><path fill="url(#SVGID_1_)" d="M22.478,55.311C18.858,52.001,11.102,47.657,5,45.176L13.17,33.8c5.999,1.965,13.962,5.791,17.995,8.997L22.478,55.311z M36.025,69.893c-4.447,10.962-9.411,21.717-13.754,29.887c1.138,1.447,1.138,2.896,0.413,4.138L7.482,94.092c4.757-7.964,11.375-20.787,16.65-33.196L36.025,69.893z M18.755,5.877c5.998,2.172,14.168,6.102,18.201,9.411c-2.896,4.137-5.791,8.273-8.791,12.41c-3.62-3.413-11.583-7.963-17.684-10.549L18.755,5.877z M100.558,69.686c-0.31,0.827-0.931,1.138-1.551,1.551c-3.62,6.722-8.791,12.203-14.996,16.649c6.205,1.552,13.237,2.69,20.684,3.311c-3.103,3.102-6.929,8.997-8.79,12.721c-10.549-1.448-19.753-3.826-27.716-7.447c-8.895,3.518-18.926,5.999-29.681,7.653c-1.241-3.62-4.24-9.514-6.619-12.616c7.756-0.827,15.202-2.172,22.028-4.033c-2.896-2.379-5.481-5.067-7.86-8.067l6.516-2.275H36.749V65.548h51.399l2.377-0.516L100.558,69.686z M99.937,62.963H38.093V40.212h61.843V62.963z M42.954,8.358h51.501l0.104,28.957H42.954V8.358z M55.261,49.002h-4.55v5.067h4.55V49.002z M80.702,16.632H56.191v2.275h24.511V16.632z M80.702,26.664H56.191v2.378h24.511V26.664z M61.052,77.131c2.068,1.862,4.447,3.518,7.24,4.965c2.895-1.447,5.583-3.103,7.962-4.965H61.052z M70.877,49.002h-4.55v5.067h4.55V49.002z M86.597,49.002h-4.654v5.067h4.654V49.002z M94.559,8.255h-0.104v0.104h0.104V8.255z M110.891,11.669H205V25.63h-39.918v6.516h17.373v47.571h-49.123V32.146h16.547V25.63h-38.988V11.669z M187.109,83.957V30.49l17.685,0.931c-0.104,1.139-1.035,1.861-3.103,2.172v70.53h-14.582v-5.998h-58.432v5.998h-14.581V30.49l17.58,0.931c-0.103,1.139-0.93,1.861-2.999,2.172v50.364H187.109z M145.535,44.245v5.998h5.584v-5.998H145.535z M145.535,61.516v6.102h5.584v-6.102H145.535z M169.632,50.243v-5.998h-5.688v5.998H169.632z M169.632,67.617v-6.102h-5.688v6.102H169.632z"/></svg>